<svg xmlns="http://www.w3.org/2000/svg" viewBox="0 0 400 400" width="100%" height="100%">
  <defs>
    <linearGradient id="pedestal" x1="0%" y1="0%" x2="100%" y2="100%">
      <stop offset="0%" stop-color="#E2E8F0" stop-opacity="0.8"/>
      <stop offset="100%" stop-color="#F8FAFC" stop-opacity="0.1"/>
    </linearGradient>
    <linearGradient id="folderFront" x1="0%" y1="0%" x2="100%" y2="100%">
      <stop offset="0%" stop-color="#818CF8" />
      <stop offset="100%" stop-color="#4F46E5" />
    </linearGradient>
    <linearGradient id="folderBack" x1="0%" y1="0%" x2="100%" y2="100%">
      <stop offset="0%" stop-color="#A5B4FC" />
      <stop offset="100%" stop-color="#6366F1" />
    </linearGradient>
    <filter id="glow" x="-20%" y="-20%" width="140%" height="140%">
      <feGaussianBlur stdDeviation="12" result="blur" />
      <feComposite in="SourceGraphic" in2="blur" operator="over" />
    </filter>
  </defs>
  <g transform="translate(0, 40)">
    <ellipse cx="200" cy="300" rx="140" ry="45" fill="url(#pedestal)" />
    <path d="M 60 300 C 60 325, 122 345, 200 345 C 278 345, 340 325, 340 300 C 340 308, 278 355, 200 355 C 122 355, 60 308, 60 300 Z" fill="#CBD5E1" opacity="0.3" />
    <ellipse cx="200" cy="300" rx="110" ry="32" fill="none" stroke="#818CF8" stroke-width="1.5" stroke-dasharray="8 6" opacity="0.4" />
  </g>
  <path d="M 100 130 L 160 130 L 180 160 L 300 160 L 300 280 L 100 280 Z" fill="url(#folderBack)" opacity="0.6" />
  <rect x="130" y="110" width="90" height="110" rx="4" fill="#FFFFFF" opacity="0.9" transform="rotate(-15 175 165)" />
  <rect x="145" y="120" width="60" height="4" fill="#CBD5E1" transform="rotate(-15 175 165)" />
  <rect x="145" y="135" width="40" height="4" fill="#CBD5E1" transform="rotate(-15 175 165)" />
  <rect x="190" y="90" width="80" height="100" rx="4" fill="#FFFFFF" opacity="0.95" transform="rotate(10 230 140)" />
  <rect x="200" y="105" width="50" height="4" fill="#94A3B8" transform="rotate(10 230 140)" />
  <rect x="200" y="120" width="30" height="4" fill="#94A3B8" transform="rotate(10 230 140)" />
  <path d="M 80 200 L 320 200 L 300 290 L 100 290 Z" fill="url(#folderFront)" filter="url(#glow)" opacity="0.9" />
  <path d="M 330 150 L 334 135 L 349 131 L 334 127 L 330 112 L 326 127 L 311 131 L 326 135 Z" fill="#818CF8" opacity="0.6" />
</svg>
