<svg xmlns="http://www.w3.org/2000/svg" viewBox="0 0 400 400" width="100%" height="100%">
  <defs>
    <linearGradient id="pedestal" x1="0%" y1="0%" x2="100%" y2="100%">
      <stop offset="0%" stop-color="#E2E8F0" stop-opacity="0.8"/>
      <stop offset="100%" stop-color="#F8FAFC" stop-opacity="0.1"/>
    </linearGradient>
    <linearGradient id="glass" x1="0%" y1="0%" x2="100%" y2="100%">
      <stop offset="0%" stop-color="#38BDF8" />
      <stop offset="100%" stop-color="#0284C7" />
    </linearGradient>
    <filter id="glow" x="-20%" y="-20%" width="140%" height="140%">
      <feGaussianBlur stdDeviation="10" result="blur" />
      <feComposite in="SourceGraphic" in2="blur" operator="over" />
    </filter>
  </defs>
  <g transform="translate(0, 40)">
    <ellipse cx="200" cy="300" rx="140" ry="45" fill="url(#pedestal)" />
    <path d="M 60 300 C 60 325, 122 345, 200 345 C 278 345, 340 325, 340 300 C 340 308, 278 355, 200 355 C 122 355, 60 308, 60 300 Z" fill="#CBD5E1" opacity="0.3" />
    <path d="M 100 300 L 300 300 M 130 280 L 270 280 M 160 260 L 240 260 M 200 255 L 200 345 M 160 340 L 130 260 M 240 340 L 270 260" stroke="#0284C7" stroke-width="1" opacity="0.3" />
  </g>
  <g transform="translate(140, 100) rotate(15)">
    <rect x="75" y="110" width="16" height="70" rx="8" fill="#94A3B8" />
    <circle cx="60" cy="60" r="50" fill="url(#glass)" opacity="0.4" filter="url(#glow)" />
    <circle cx="60" cy="60" r="50" fill="none" stroke="#38BDF8" stroke-width="8" opacity="0.9" />
    <path d="M 30 40 A 30 30 0 0 1 70 30" fill="none" stroke="#FFFFFF" stroke-width="4" stroke-linecap="round" opacity="0.6" />
  </g>
  <path d="M 100 240 L 105 220 L 120 215 L 105 210 L 100 190 L 95 210 L 80 215 L 95 220 Z" fill="#94A3B8" opacity="0.4" />
  <path d="M 280 160 L 285 140 L 300 135 L 285 130 L 280 110 L 275 130 L 260 135 L 275 140 Z" fill="#38BDF8" opacity="0.5" filter="url(#glow)" />
</svg>
