<svg xmlns="http://www.w3.org/2000/svg" viewBox="0 0 64 64">
  <defs>
    <linearGradient id="rind" x1="12" y1="8" x2="48" y2="56" gradientUnits="userSpaceOnUse">
      <stop offset="0" stop-color="#2bd96f"/>
      <stop offset="0.58" stop-color="#15b85f"/>
      <stop offset="1" stop-color="#07833f"/>
    </linearGradient>
    <linearGradient id="flesh" x1="18" y1="27" x2="42" y2="54" gradientUnits="userSpaceOnUse">
      <stop offset="0" stop-color="#ff7f8f"/>
      <stop offset="1" stop-color="#f0445e"/>
    </linearGradient>
    <filter id="softShadow" x="-20%" y="-20%" width="140%" height="150%">
      <feDropShadow dx="0" dy="3" stdDeviation="2.2" flood-color="#04783c" flood-opacity="0.22"/>
    </filter>
  </defs>

  <g filter="url(#softShadow)">
    <circle cx="30" cy="34" r="23" fill="url(#rind)"/>
    <path d="M12.5 38.6 47.8 20.4c3.9 11.9-2.7 26.1-14.8 30.1-8.3 2.8-16.7-1.1-20.5-11.9Z" fill="#ffffff"/>
    <path d="M18.4 40.7 43.1 28.1c1.4 7.7-3.3 16.2-11.1 18.9-5.6 1.9-10.7-.5-13.6-6.3Z" fill="url(#flesh)"/>
    <path d="M12.4 31.2c1.6-5.4 5.5-10 10.7-12.2" fill="none" stroke="#ffffff" stroke-width="5" stroke-linecap="round"/>
    <path d="M27.2 15.8c1.4-.4 2.8-.6 4.3-.7" fill="none" stroke="#ffffff" stroke-width="5" stroke-linecap="round"/>
    <ellipse cx="24.8" cy="41.5" rx="2.1" ry="3.4" fill="#102033" transform="rotate(18 24.8 41.5)"/>
    <ellipse cx="33.7" cy="37.2" rx="2.1" ry="3.4" fill="#102033" transform="rotate(-63 33.7 37.2)"/>
    <ellipse cx="31.4" cy="46.1" rx="2" ry="3.2" fill="#102033" transform="rotate(-9 31.4 46.1)"/>
  </g>

  <rect x="45" y="13" width="7" height="7" rx="1.6" fill="#0aa657"/>
  <rect x="53" y="22" width="5" height="5" rx="1.2" fill="#16b864"/>
  <rect x="48" y="28" width="4" height="4" rx="1" fill="#0f9a50"/>
</svg>
